<svg width="1613" height="1442" viewBox="0 0 1613 1442" fill="none" xmlns="http://www.w3.org/2000/svg">
<path d="M612.5 544.501C506.5 477.5 442.5 535.5 431 612.5C366.129 635.564 264 669 264 669L403.5 1157L1285.5 1177L1362.5 975.501C1362.5 975.501 1279.27 835.241 1203 766.501C1210 677.5 1131.5 593 1025 649C1010.5 586 945.5 510.5 841.5 568.501C788.5 447.5 685 425 612.5 544.501Z" fill="#84D2F6"/>
<path d="M301.801 1219.23C205.142 1094.49 122.514 620.51 122.514 620.51H28.9734C28.9734 620.51 7.78342 526.189 63.2726 506.69C178.639 466.151 341.632 525.404 407.815 558.144C473.997 590.884 571.005 654.57 685.32 692.232C786.253 725.484 843.119 733.013 951.912 746.802C1124.11 768.628 1494.45 726.531 1550.57 768.628C1589.54 797.855 1587.99 871.535 1587.99 871.535H1494.45C1494.45 871.535 1459.38 1086.07 1375.96 1219.23C1356.59 1250.15 1290.93 1265.01 1206.5 1272.11V1400.5C1206.5 1409.34 1199.34 1416.5 1190.5 1416.5H1141.6C1135.43 1416.5 1129.81 1412.95 1127.15 1407.38L1065.5 1278.04C1013.52 1278.76 960.19 1278.47 909.818 1278.47C805.337 1278.47 686.076 1280.43 580.5 1276.8L523.691 1406.9C521.145 1412.73 515.388 1416.5 509.027 1416.5H455.5C446.663 1416.5 439.5 1409.34 439.5 1400.5V1266.67C371.3 1258.01 320.593 1243.47 301.801 1219.23Z" fill="#84D2F6"/>
<path d="M439.5 1266.67C371.3 1258.01 320.593 1243.47 301.801 1219.23C205.142 1094.49 122.514 620.51 122.514 620.51H28.9734C28.9734 620.51 7.78342 526.189 63.2726 506.69C178.639 466.151 341.632 525.404 407.815 558.144C473.997 590.884 571.005 654.57 685.32 692.232C786.253 725.484 843.119 733.013 951.912 746.802C1124.11 768.628 1494.45 726.531 1550.57 768.628C1589.54 797.855 1587.99 871.535 1587.99 871.535H1494.45C1494.45 871.535 1459.38 1086.07 1375.96 1219.23C1356.59 1250.15 1290.93 1265.01 1206.5 1272.11M439.5 1266.67V1400.5C439.5 1409.34 446.663 1416.5 455.5 1416.5H509.028C515.388 1416.5 521.145 1412.73 523.691 1406.9L580.5 1276.8M439.5 1266.67C481.086 1271.94 529.176 1275.03 580.5 1276.8M580.5 1276.8C686.076 1280.43 805.337 1278.47 909.818 1278.47C960.19 1278.47 1013.52 1278.76 1065.5 1278.04M1206.5 1272.11V1400.5C1206.5 1409.34 1199.34 1416.5 1190.5 1416.5H1141.6C1135.43 1416.5 1129.81 1412.95 1127.15 1407.38L1065.5 1278.04M1206.5 1272.11C1163.2 1275.75 1114.96 1277.36 1065.5 1278.04" stroke="#133C55" stroke-width="50"/>
<path d="M1587.99 871.535H1494.45C1494.45 871.535 1090 882.5 951.912 871.535C813.824 860.57 685.32 811 685.32 811C685.32 811 514.59 742.182 407.815 692.232C254.5 620.51 122.514 620.51 122.514 620.51H28.9734C28.9734 620.51 7.78342 526.189 63.2726 506.69C178.639 466.151 341.632 525.404 407.815 558.144C473.997 590.884 571.005 654.57 685.32 692.232C786.253 725.484 843.119 733.013 951.912 746.802C1124.11 768.628 1494.45 726.531 1550.57 768.628C1589.54 797.855 1587.99 871.535 1587.99 871.535Z" fill="white" stroke="#133C55" stroke-width="50"/>
<circle cx="917.5" cy="314.5" r="70.5" fill="white"/>
<circle cx="639.5" cy="218.5" r="89.5" fill="white"/>
<circle cx="869.5" cy="28.5" r="28.5" fill="white"/>
<path d="M1491.5 526.5V749.5H1404.5V609.5H1292V566.5C1292 544.409 1309.91 526.5 1332 526.5H1491.5Z" fill="#F6FFF8"/>
<path d="M1491.5 526.5V749.5H1404.5V609.5H1292V566.5C1292 544.409 1309.91 526.5 1332 526.5H1491.5ZM1491.5 526.5V482C1491.5 459.909 1473.59 442 1451.5 442H1389.5" stroke="#133C55" stroke-width="50" stroke-linecap="round"/>
<path d="M317 1010L347.911 1101.57C361.416 1141.57 396.631 1170.32 438.532 1175.54L526.5 1186.5" stroke="white" stroke-width="50" stroke-linecap="round"/>
</svg>
