<svg width="1549" height="1707" viewBox="0 0 1549 1707" fill="none" xmlns="http://www.w3.org/2000/svg">
<path d="M1413.18 1320.5H134.822C77.9903 1320.5 33.8737 1270.93 40.4629 1214.49L169.448 109.486C175.037 61.6046 215.601 25.5 263.807 25.5H1280.09C1328.16 25.5 1368.66 61.4115 1374.4 109.14L1507.5 1214.14C1514.31 1270.7 1470.15 1320.5 1413.18 1320.5Z" fill="#59A5D8" stroke="#133C55" stroke-width="50"/>
<path d="M245 1315L369 28.5H1308.73C1339.12 28.5 1364.71 51.218 1368.31 81.3914L1507.49 1247.89C1511.75 1283.59 1483.87 1315 1447.92 1315H245Z" fill="#84D2F6"/>
<path d="M1413.18 1295.5H134.822C92.946 1295.5 60.4391 1258.98 65.2943 1217.38L194.279 112.384C198.398 77.1034 228.287 50.5 263.807 50.5H1280.09C1315.51 50.5 1345.35 76.9611 1349.58 112.129L1482.68 1217.13C1487.7 1258.81 1455.16 1295.5 1413.18 1295.5Z" stroke="#133C55" stroke-width="100"/>
<path d="M432 362.5C479.777 362.5 511.972 333.254 527.257 315.263C532.222 309.419 542.662 309.503 547.643 315.333C563.02 333.33 596.37 362.5 651 362.5C704.285 362.5 741.799 328.143 757.202 310.998C761.441 306.28 769.121 305.745 773.829 309.996C792.403 326.762 838.186 362.5 891 362.5C940.921 362.5 978.279 330.57 995.122 312.912C1000.07 307.726 1009.26 308.201 1013.67 313.851C1027.58 331.677 1057.48 362.5 1098 362.5" stroke="#133C55" stroke-width="50" stroke-linecap="round"/>
<path d="M412 558C463.613 558 498.071 527.627 513.886 509.746C518.816 504.171 528.741 504.254 533.68 509.82C549.555 527.712 585.143 558 644.153 558C701.469 558 741.572 522.625 757.439 505.753C761.626 501.3 768.919 500.823 773.554 504.806C792.698 521.26 841.802 558 898.568 558C952.391 558 992.439 524.969 1009.84 507.52C1014.74 502.608 1023.49 503.087 1027.87 508.463C1042.28 526.131 1074.33 558 1118 558" stroke="#133C55" stroke-width="50" stroke-linecap="round"/>
<path d="M390 754C445.823 754 482.756 722.517 499.129 704.786C504.017 699.494 513.483 699.575 518.373 704.866C534.773 722.611 572.804 754 636.622 754C698.364 754 741.303 717.625 757.662 701.053C761.788 696.873 768.701 696.411 773.25 700.126C792.964 716.223 845.743 754 906.892 754C964.998 754 1007.99 719.889 1025.98 702.683C1030.82 698.054 1039.14 698.483 1043.49 703.575C1058.41 721.039 1092.82 754 1140 754" stroke="#133C55" stroke-width="50" stroke-linecap="round"/>
<path d="M817 1269.5V1199.01C817.019 1198.81 817.043 1198.55 817.072 1198.26C817.188 1197.1 817.391 1195.29 817.723 1192.92C818.39 1188.15 819.57 1181.18 821.594 1172.73C825.663 1155.74 833.016 1133.34 846.051 1111.17C871.405 1068.05 918.975 1024 1013 1024C1106.94 1024 1153.11 1067.94 1177.21 1110.76C1189.64 1132.85 1196.42 1155.18 1200.06 1172.15C1201.86 1180.58 1202.87 1187.55 1203.41 1192.3C1203.69 1194.68 1203.84 1196.48 1203.93 1197.64C1203.96 1198.08 1203.99 1198.42 1204 1198.66V1675C1204 1678.87 1200.87 1682 1197 1682H1105C1101.13 1682 1098 1678.87 1098 1675V1248.93C1098 1231.23 1096.57 1209.65 1089.74 1190.3C1082.72 1170.4 1068.95 1150.33 1043.35 1141.79C1034.3 1138.77 1024.18 1137 1013 1137C1001.18 1137 990.558 1138.98 981.149 1142.33C956.306 1151.15 943.061 1170.92 936.344 1190.38C929.812 1209.31 928.5 1230.3 928.5 1247.47V1269.5H817ZM816.943 1199.69L816.942 1199.7C816.942 1199.71 816.942 1199.7 816.943 1199.69Z" fill="#F6FFF8" stroke="#133C55" stroke-width="50" stroke-linecap="round"/>
<path d="M1083.49 1425H733V1318.5H1084.05C1099.61 1318.5 1109.31 1321.75 1114.63 1327.16C1123.41 1336.08 1132.5 1350.14 1132.5 1371.5C1132.5 1392.73 1123.53 1406.9 1114.75 1415.99C1109.31 1421.62 1099.35 1425 1083.49 1425Z" fill="#F6FFF8" stroke="#133C55" stroke-width="50" stroke-linecap="round"/>
<path d="M1083.49 1641H733V1534.5H1084.05C1099.61 1534.5 1109.31 1537.75 1114.63 1543.16C1123.41 1552.08 1132.5 1566.14 1132.5 1587.5C1132.5 1608.73 1123.53 1622.9 1114.75 1631.99C1109.31 1637.62 1099.35 1641 1083.49 1641Z" fill="#F6FFF8" stroke="#133C55" stroke-width="50" stroke-linecap="round"/>
<path d="M418 1269.5V1199.01C418.019 1198.81 418.043 1198.55 418.072 1198.26C418.188 1197.1 418.391 1195.29 418.723 1192.92C419.39 1188.15 420.57 1181.18 422.594 1172.73C426.663 1155.74 434.016 1133.34 447.051 1111.17C472.405 1068.05 519.975 1024 614 1024C707.942 1024 754.114 1067.94 778.214 1110.76C790.643 1132.85 797.417 1155.18 801.056 1172.15C802.864 1180.58 803.867 1187.55 804.413 1192.3C804.686 1194.68 804.843 1196.48 804.929 1197.64C804.963 1198.08 804.985 1198.42 805 1198.66V1675C805 1678.87 801.866 1682 798 1682H706C702.134 1682 699 1678.87 699 1675V1248.93C699 1231.23 697.57 1209.65 690.743 1190.3C683.725 1170.4 669.948 1150.33 644.353 1141.79C635.304 1138.77 625.181 1137 614 1137C602.18 1137 591.558 1138.98 582.149 1142.33C557.306 1151.15 544.061 1170.92 537.344 1190.38C530.812 1209.31 529.5 1230.3 529.5 1247.47V1269.5H418ZM417.943 1199.69L417.942 1199.7C417.942 1199.71 417.942 1199.7 417.943 1199.69Z" fill="#F6FFF8" stroke="#133C55" stroke-width="50" stroke-linecap="round"/>
</svg>
