<svg width="336" height="466" viewBox="0 0 336 466" fill="none" xmlns="http://www.w3.org/2000/svg">
<path d="M168 0.231445L147 23.9617C147 23.9617 111.16 64.9247 75.04 118.035C38.92 171.146 0 234.709 0 295.73C0 340.684 17.7 383.798 49.2061 415.586C80.7122 447.373 123.444 465.231 168 465.231C212.556 465.231 255.288 447.373 286.794 415.586C318.3 383.798 336 340.684 336 295.73C336 234.709 297.08 171.146 260.96 118.035C224.84 64.9247 189 23.9617 189 23.9617L168 0.231445Z" fill="#00A3E1" fill-opacity="0.1"/>
<path d="M168 126.231L155.125 140.776C155.125 140.776 133.152 165.882 111.007 198.434C88.8617 230.985 65 269.943 65 307.343C65 334.896 75.8518 361.32 95.168 380.803C114.484 400.286 140.683 411.231 168 411.231C195.317 411.231 221.516 400.286 240.832 380.803C260.148 361.32 271 334.896 271 307.343C271 269.943 247.138 230.985 224.993 198.434C202.848 165.882 180.875 140.776 180.875 140.776L168 126.231Z" fill="#00A3E1"/>
</svg>
