<svg width="210" height="275" viewBox="0 0 210 275" fill="none" xmlns="http://www.w3.org/2000/svg">
<path d="M1.93474 17.7351C0.901953 8.26791 8.31697 0 17.8404 0H192.16C201.683 0 209.098 8.26792 208.065 17.7352L181.556 260.735C180.671 268.852 173.816 275 165.651 275H44.3495C36.1845 275 29.3293 268.852 28.4438 260.735L1.93474 17.7351Z" fill="#F6FFF8"/>
<path d="M13 57H197L174.206 258.35C173.519 264.416 168.387 269 162.282 269H47.7182C41.6131 269 36.4811 264.416 35.7943 258.35L13 57Z" fill="#84D2F6"/>
<path d="M5.91115 17.3014C5.13656 10.2009 10.6978 4 17.8404 4H192.16C199.302 4 204.863 10.2009 204.089 17.3014L177.58 260.301C176.916 266.389 171.774 271 165.651 271H44.3495C38.2257 271 33.0844 266.389 32.4202 260.301L5.91115 17.3014Z" stroke="#133C55" stroke-width="8"/>
<path d="M27.4481 39.299C26.675 32.1993 32.236 26 39.3776 26H43.8687C49.9933 26 55.1351 30.6123 55.7981 36.701L77.6847 237.701C78.4578 244.801 72.8968 251 65.7552 251H61.2642C55.1395 251 49.9977 246.388 49.3347 240.299L27.4481 39.299Z" fill="white"/>
<circle cx="130" cy="216" r="16" fill="white"/>
<circle cx="146" cy="163" r="12" fill="white"/>
<circle cx="106" cy="138" r="8" fill="white"/>
<path d="M1.93474 17.7351C0.901953 8.26791 8.31697 0 17.8404 0H192.16C201.683 0 209.098 8.26792 208.065 17.7352L181.556 260.735C180.671 268.852 173.816 275 165.651 275H44.3495C36.1845 275 29.3293 268.852 28.4438 260.735L1.93474 17.7351Z" fill="#133C55"/>
</svg>
