<svg width="2475" height="1370" viewBox="0 0 2475 1370" fill="none" xmlns="http://www.w3.org/2000/svg">
<path id="waveShape" d="M0 20C0 20 89.312 40 154.688 40C220.063 40 309.375 20 309.375 20C309.375 20 398.687 0 464.062 0C529.438 0 618.75 20 618.75 20C618.75 20 708.062 40 773.438 40C838.813 40 928.125 20 928.125 20C928.125 20 1017.44 0 1082.81 0C1148.19 0 1237.5 20 1237.5 20C1237.5 20 1326.81 40 1392.19 40C1457.56 40 1546.88 20 1546.88 20C1546.88 20 1636.19 0 1701.56 0C1766.94 0 1856.25 20 1856.25 20C1856.25 20 1945.56 40 2010.94 40C2076.31 40 2165.62 20 2165.62 20C2165.62 20 2254.94 0 2320.31 0C2385.69 0 2475 20 2475 20V1370H0V20Z" fill="#00A3E1"/>
</svg>
