<svg width="2475" height="1414" viewBox="0 0 2475 1414" fill="none" xmlns="http://www.w3.org/2000/svg">
<path id="waveShape" d="M0 64C0 64 89.312 128 154.688 128C220.063 128 309.375 64 309.375 64C309.375 64 398.687 0 464.062 0C529.438 0 618.75 64 618.75 64C618.75 64 708.062 128 773.438 128C838.813 128 928.125 64 928.125 64C928.125 64 1017.44 0 1082.81 0C1148.19 0 1237.5 64 1237.5 64C1237.5 64 1326.81 128 1392.19 128C1457.56 128 1546.88 64 1546.88 64C1546.88 64 1636.19 0 1701.56 0C1766.94 0 1856.25 64 1856.25 64C1856.25 64 1945.56 128 2010.94 128C2076.31 128 2165.62 64 2165.62 64C2165.62 64 2254.94 0 2320.31 0C2385.69 0 2475 64 2475 64V1414H0V64Z" fill="url(#paint0_linear_276_12909)"/>
<defs>
<linearGradient id="paint0_linear_276_12909" x1="0" y1="707" x2="2475" y2="707" gradientUnits="userSpaceOnUse">
<stop stop-color="#4884EE"/>
<stop offset="1" stop-color="#00A3E1"/>
</linearGradient>
</defs>
</svg>
