<svg width="326" height="333" viewBox="0 0 326 333" fill="none" xmlns="http://www.w3.org/2000/svg">
<path d="M163 332.6C160.155 332.6 157.488 332.159 155 331.278C152.511 330.396 150.2 328.881 148.066 326.733L7.26621 185.933C2.99954 181.667 0.866211 176.604 0.866211 170.744C0.866211 164.885 2.99954 159.814 7.26621 155.533C11.5329 151.267 16.5107 149.134 22.1995 149.134C27.8884 149.134 32.8662 151.267 37.1329 155.533L141.666 260.067V21.1335C141.666 15.0891 143.714 10.1113 147.81 6.20016C151.906 2.28905 156.969 0.333496 163 0.333496C169.044 0.333496 174.114 2.3815 178.21 6.4775C182.306 10.5735 184.347 15.6366 184.333 21.6668V260.067L288.866 155.533C293.133 151.267 298.111 149.134 303.8 149.134C309.488 149.134 314.466 151.267 318.733 155.533C323 159.8 325.133 164.87 325.133 170.744C325.133 176.618 323 181.681 318.733 185.933L177.933 326.733C175.8 328.867 173.488 330.382 171 331.278C168.511 332.174 165.844 332.614 163 332.6Z" fill="#133C55"/>
</svg>
