<svg width="331" height="377" viewBox="0 0 331 377" fill="none" xmlns="http://www.w3.org/2000/svg">
<path d="M6.64713 3.50435C6.46987 6.41976 6.35169 7.12652 5.879 7.5388C5.52448 7.86274 5.31767 8.42226 5.31767 9.12902C5.31767 10.1303 5.43586 10.2775 6.52895 10.7487C7.82885 11.3377 8.86284 12.545 8.86284 13.4874C8.86284 13.8408 9.01056 14.1942 9.15827 14.2825C9.33553 14.3709 9.45371 15.0776 9.45371 15.8138C9.45371 16.6973 9.74915 17.7869 10.34 19.0237C11.2263 20.879 11.2558 20.9084 11.049 24.5012C10.9309 27.2693 10.7536 28.3 10.34 28.8595C9.98549 29.3896 9.77868 30.3614 9.69005 32.1872C9.57188 34.602 9.5128 34.8081 8.59697 35.7505L7.65158 36.7223L8.12428 38.3125C8.39016 39.196 8.77421 40.2267 8.98101 40.6389C9.2469 41.1101 9.30599 42.1114 9.21736 43.5543C9.09919 45.3507 8.92194 45.9986 8.06519 47.4416C7.26753 48.7962 7.00165 49.5913 6.88348 51.0637C6.73576 52.8601 6.67666 52.9779 5.90854 53.1546C5.22905 53.3018 5.02226 53.5668 4.72683 54.7153C4.49049 55.481 3.78145 57.1007 3.07242 58.3081C1.59527 60.8995 -7.02857e-05 64.7278 -7.02857e-05 65.7291C-7.02857e-05 66.1119 0.324913 66.8776 0.738515 67.4371C1.32938 68.2322 1.4771 68.7917 1.4771 70.0875C1.4771 71.0004 1.68388 72.4139 1.92023 73.2679C2.42246 74.9465 3.60419 76.1244 8.0061 79.2754C10.2218 80.8656 10.5763 81.2779 10.8718 82.3381C11.1081 83.251 11.6694 83.9872 12.9398 85.1357C14.0033 86.1075 14.9192 87.256 15.2737 88.0805C15.5987 88.8167 16.3077 89.7296 16.8099 90.083C17.6371 90.672 17.7258 90.8781 17.7258 92.2917C17.7258 93.3224 17.8735 93.9997 18.1689 94.2353C18.4052 94.4414 18.612 94.8831 18.612 95.2071C18.612 95.531 18.8779 96.0905 19.1734 96.4144C19.6165 96.9151 19.7938 97.7985 20.0597 100.567C20.3551 103.894 20.3551 104.101 19.7938 104.689C19.4097 105.072 19.2029 105.72 19.2029 106.397C19.2029 107.016 18.9961 107.988 18.7598 108.577C18.1098 110.137 18.1984 111.522 19.0256 112.346C19.4097 112.729 19.7938 113.347 19.8824 113.73C19.971 114.084 20.2664 115.32 20.5028 116.439C20.8278 117.941 21.2118 118.736 21.8618 119.414C22.5117 120.091 22.7481 120.592 22.7481 121.387C22.7481 121.976 22.8958 122.565 23.0435 122.653C23.5457 122.948 23.3685 124.773 22.7776 125.804C22.4526 126.334 22.1277 127.394 22.0095 128.131L21.8027 129.485L23.8412 130.634C25.6137 131.664 25.8501 131.9 25.7615 132.577C25.7024 133.166 25.8205 133.402 26.4114 133.578C27.6522 134.02 32.2018 138.349 32.2018 139.115C32.2018 139.91 35.5993 143.679 37.5196 144.975C38.2582 145.476 39.5285 146.536 40.3557 147.301C41.6261 148.479 42.0101 149.098 42.5419 150.806C43.1328 152.573 43.3396 152.926 44.1668 153.25C44.8462 153.545 45.2598 154.016 45.5848 154.87C45.8802 155.547 46.0871 156.254 46.0871 156.46C46.0871 156.637 46.2938 157.196 46.5302 157.638C46.9143 158.374 46.9143 158.728 46.5597 160.494C46.3234 161.613 45.7916 163.145 45.378 163.91C44.8167 164.941 44.6985 165.442 44.9349 165.854C45.3485 166.649 45.9098 166.502 46.8847 165.383C48.2437 163.852 49.2186 164.146 52.0252 167.003L54.3 169.329H55.9249C57.5497 169.329 57.5793 169.358 58.9383 170.949C60.1791 172.392 60.4745 172.568 61.479 172.568C62.9266 172.568 63.3106 171.685 62.3062 170.625C61.7744 170.065 61.7153 169.859 62.0403 169.476C62.3357 169.123 62.3357 168.858 62.0403 168.151C61.7153 167.385 61.7448 167.15 62.3062 166.237C63.0447 164.971 63.0743 164.617 62.4834 164.617C62.1289 164.617 62.0403 164.234 62.0403 162.88C62.0403 161.29 62.0994 161.142 62.7493 160.966C63.1629 160.877 63.872 160.465 64.3742 160.053L65.2605 159.287L66.2354 160.141C66.7672 160.583 67.6535 161.26 68.1852 161.643C69.5737 162.615 69.3965 163.233 67.358 164.47C66.3831 165.059 65.5854 165.736 65.5854 165.972C65.5854 166.207 65.4673 166.384 65.29 166.384C65.1423 166.384 64.9946 167.12 64.9946 168.004V169.623H65.999C67.358 169.623 67.683 170.507 67.1808 172.804C67.0035 173.628 69.3965 176.279 71.3463 177.427C72.6167 178.134 72.6167 178.164 72.6462 179.901C72.6462 181.05 72.9121 182.198 73.3553 183.229C73.9461 184.524 74.3006 184.937 75.571 185.614C76.605 186.174 77.1072 186.645 77.1072 187.028C77.1072 187.322 76.93 187.587 76.7527 187.587C75.7482 187.587 74.1825 186.939 73.5621 186.262C73.178 185.85 72.5871 185.526 72.2031 185.526C71.8486 185.526 71.4054 185.32 71.1986 185.084C70.9918 184.848 70.9327 184.642 71.0804 184.642C71.1986 184.642 70.785 184.112 70.1646 183.464C69.3079 182.61 68.7761 182.286 68.0966 182.286C66.7672 182.286 65.94 181.992 65.7036 181.462C65.3491 180.578 65.3491 177.457 65.7332 176.514C66.0581 175.69 66.0286 175.543 65.3196 174.718C64.906 174.247 64.1969 173.628 63.7833 173.363C63.0743 172.951 62.9561 172.951 62.3062 173.393C60.9472 174.306 60.5336 175.543 61.3017 176.397C61.8039 176.956 61.8039 177.781 61.2722 183.081L61.0949 184.907L62.1584 185.437C63.0447 185.85 63.222 186.085 63.222 186.88C63.222 187.381 63.3993 187.882 63.6061 187.97C63.8129 188.029 64.2265 189.118 64.5219 190.355C65.0537 192.387 65.0537 192.623 64.6105 193.094C64.2856 193.477 64.1674 194.154 64.1969 195.597C64.256 197.541 64.2856 197.6 65.3786 198.336C66.2945 198.954 66.4717 199.278 66.4717 200.103C66.4717 201.074 66.5308 201.133 67.4467 201.133C68.2443 201.133 68.5397 201.34 69.2192 202.37C69.6624 203.048 70.0169 203.754 70.0169 203.931C70.0169 204.078 70.785 204.785 71.7304 205.492L73.4143 206.758L76.989 206.67L80.5933 206.581L81.8932 208.348C83.6658 210.704 83.9317 211.234 84.1975 213.178C84.4043 214.562 84.3453 215.004 83.8726 215.799C83.5476 216.388 83.3113 217.33 83.3113 218.184C83.3113 219.274 83.1635 219.715 82.6318 220.216C81.775 221.011 81.5978 221.011 80.7706 220.245C80.1797 219.686 80.0024 219.657 79.0571 219.98C78.1412 220.275 77.9935 220.452 77.9935 221.188C77.9935 221.659 78.2003 222.366 78.4662 222.749C78.7616 223.22 78.8207 223.514 78.6139 223.662C78.0821 223.956 78.2594 224.869 78.9093 225.458C79.2639 225.752 79.7956 226.577 80.1206 227.254C80.5933 228.314 80.6228 228.727 80.357 230.494C80.0615 232.467 80.0911 232.496 80.8887 233.173C81.3319 233.556 82.2182 234.381 82.8976 235.029C83.9021 236 84.2862 236.177 85.4088 236.177C86.5905 236.207 86.7973 236.324 87.6245 237.443C88.1268 238.15 88.6585 239.122 88.7472 239.652C88.8653 240.153 89.3971 240.918 89.8993 241.36C90.5198 241.89 90.9038 242.479 90.9924 243.186C91.1106 244.099 91.2879 244.275 92.4105 244.688C93.3559 245.041 93.6513 245.277 93.6513 245.807C93.6513 247.426 95.0103 249.547 97.3147 251.431C99.5304 253.287 99.5599 253.316 99.5599 254.73C99.5599 255.584 99.7372 256.261 99.9735 256.497C100.21 256.673 100.446 257.115 100.505 257.468C100.564 257.94 100.86 258.146 101.687 258.293C103.696 258.617 105.528 260.001 106.414 261.827C107.359 263.8 109.25 265.478 110.875 265.714C113.8 266.156 115.631 269.307 113.888 270.926C113.268 271.515 113.15 271.869 113.15 273.253C113.179 275.02 113.593 275.579 115.218 276.08C115.631 276.198 116.37 276.61 116.902 276.993C117.847 277.7 117.847 277.7 118.172 277.111C118.467 276.522 118.527 276.522 119.501 277.022C120.21 277.405 120.772 278.053 121.392 279.319C122.278 281.027 122.279 281.086 121.747 281.675C121.304 282.146 120.713 284.119 120.801 284.914C120.801 284.973 120.595 285.533 120.358 286.092C119.945 287.094 119.974 287.211 120.565 288.036C121.097 288.772 121.185 289.243 121.067 290.863C120.949 292.63 121.008 292.807 121.599 293.072C122.249 293.366 122.899 294.456 122.899 295.251C122.899 295.486 122.574 296.017 122.16 296.429C121.776 296.812 121.51 297.312 121.599 297.518C121.658 297.725 121.451 298.402 121.126 299.05C120.24 300.787 120.329 301.023 121.806 300.817C122.899 300.64 123.194 300.728 124.317 301.612C125.115 302.23 125.824 303.114 126.208 303.968C126.858 305.499 127.36 305.705 129.014 305.057C129.457 304.881 130.61 304.616 131.555 304.468C132.53 304.321 133.593 303.997 133.918 303.762C134.45 303.438 135.041 303.438 136.932 303.673C138.232 303.82 140.359 304.056 141.659 304.144C143.461 304.292 144.022 304.468 144.022 304.792C144.022 305.028 144.318 305.352 144.643 305.528C144.997 305.705 145.47 306 145.736 306.206C146.061 306.5 146.415 306.471 147.361 306.147C148.158 305.852 148.66 305.823 148.779 306C148.867 306.176 149.96 306.265 151.378 306.235C155.16 306.117 157.228 306.618 159.178 308.09C160.064 308.768 161.275 309.916 161.866 310.623C162.546 311.448 163.284 311.978 164.023 312.184C165.264 312.508 165.736 313.156 165.736 314.481C165.736 315.158 166.061 315.629 167.154 316.542C168.425 317.661 169.045 317.926 171.409 318.456C171.822 318.545 172.59 318.957 173.063 319.369C173.89 320.047 174.156 320.105 177.081 320.105C180.153 320.105 180.242 320.105 180.508 320.842C180.656 321.254 180.833 321.578 180.862 321.578C180.921 321.578 181.601 321.372 182.399 321.136C183.196 320.901 184.998 320.694 186.387 320.694C188.809 320.694 189.016 320.753 190.464 321.725C191.734 322.579 192.059 322.991 192.325 324.022C192.502 324.699 192.798 325.583 192.975 325.995C193.359 326.879 193.3 328.263 192.768 330C192.443 331.119 192.443 331.355 192.945 332.15C193.477 333.033 193.595 333.063 195.427 333.063C197.347 333.063 197.347 333.063 197.85 332.032C198.204 331.296 198.499 331.031 198.795 331.149C199.061 331.266 200.154 331.414 201.247 331.502C203.02 331.649 203.285 331.767 203.876 332.592C205.56 334.859 206.949 336.037 209.283 337.156C210.583 337.804 212.03 338.422 212.503 338.511C213.507 338.776 213.98 339.571 214.187 341.456L214.335 342.928L215.812 343.016C217.171 343.105 217.437 343.252 219.209 344.931C220.273 345.961 221.602 347.169 222.223 347.64C223.729 348.877 228.161 356.298 228.988 359.036C229.52 360.686 229.638 361.716 229.579 363.542C229.431 366.987 229.461 367.253 229.845 368.754C230.288 370.58 230.76 370.934 232.09 370.521C233.094 370.227 233.153 370.256 233.803 371.287C235.103 373.378 235.281 373.937 234.217 372.73C233.301 371.699 232.208 371.258 232.208 371.935C232.208 372.465 233.39 374.585 233.685 374.585C233.833 374.585 234.128 375.115 234.306 375.793L234.69 377L236.61 376.823C237.674 376.706 244.084 376.175 250.82 375.586C263.258 374.556 281.486 372.995 300.305 371.375C306.007 370.875 310.999 370.462 311.442 370.462C311.974 370.462 312.299 370.256 312.417 369.873C312.654 369.137 313.038 369.137 314.751 369.903L316.14 370.521L317.144 369.815C317.942 369.284 318.208 368.872 318.356 367.871C318.503 366.929 318.769 366.428 319.39 365.986C320.335 365.279 320.424 364.543 320.069 361.422C319.892 359.949 319.833 359.89 318.503 359.331C317.765 359.007 316.494 358.654 315.667 358.536C313.067 358.153 311.945 356.474 313.008 354.472C313.954 352.676 313.895 351.704 312.801 350.055L311.767 348.523L312.329 347.64C312.742 347.021 312.831 346.432 312.713 345.667C312.565 344.636 312.624 344.518 313.658 343.959C314.279 343.635 315.017 343.193 315.283 342.987C315.874 342.516 317.41 339.011 317.735 337.48C317.824 336.921 318.178 335.654 318.503 334.653C319.36 332.032 319.39 331.708 319.39 328.734C319.39 326.614 319.242 325.76 318.799 324.876L318.208 323.728L319.774 322.402C321.251 321.107 322.255 319.516 322.817 317.602C322.994 316.925 323.437 316.542 324.825 315.894C330.025 313.421 329.759 313.627 330.409 311.801L331 310.093L330.114 308.856C329.641 308.179 327.927 306.618 326.303 305.381C323.348 303.143 322.994 302.642 322.935 300.817C322.905 300.228 322.373 299.285 321.458 298.078C320.453 296.841 319.744 295.516 319.242 293.955C318.651 292.188 318.178 291.393 317.262 290.48C315.697 289.008 315.224 287.859 315.224 285.592V283.707L309.995 278.907C307.1 276.257 303.495 272.958 301.959 271.545C300.423 270.161 293.628 263.918 286.892 257.704C280.127 251.49 273.332 245.247 271.796 243.834C270.259 242.42 263.465 236.177 256.699 229.964C249.963 223.75 243.109 217.448 241.514 216.005C239.919 214.532 235.871 210.822 232.533 207.759C229.195 204.667 225.915 201.722 225.265 201.163C223.611 199.779 213.626 190.65 199.09 177.28C192.325 171.037 185.855 165.177 184.762 164.205C183.639 163.263 177.672 157.815 171.497 152.131C165.323 146.418 158.676 140.322 156.726 138.555C154.776 136.788 150.788 133.137 147.833 130.398L142.486 125.451L142.309 76.949C142.19 50.2392 142.102 22.3514 142.102 14.9304C142.102 7.5388 142.043 1.14847 141.925 0.73619L141.747 -2.33808e-05H74.3006H6.85393L6.64713 3.50435Z" fill="#00A3E1"/>
</svg>
