<svg width="552" height="265" viewBox="0 0 552 265" fill="none" xmlns="http://www.w3.org/2000/svg">
<path fill-rule="evenodd" clip-rule="evenodd" d="M444.827 7.2752C439.282 11.033 428.404 19.519 420.654 26.133C407.974 36.9541 400.26 40.9131 400.26 36.5984C400.26 31.6634 406.661 24.6773 413.95 21.6611C422.82 17.9888 424.395 14.9479 419.12 11.6891C417.266 10.5422 413.128 12.9381 409.323 17.3575C402.067 25.7856 398.105 25.2783 402.795 16.5194C407.491 7.75216 406.501 7.34965 394.852 13.2909C388.844 16.354 379.579 18.86 374.263 18.86C361.826 18.86 335.897 28.5618 326.324 36.7942C317.035 44.7839 320.199 49.049 330.167 41.9773C353.792 25.2231 358.876 23.569 358.876 32.645C358.876 39.689 362.995 39.7083 367.92 32.6835C371.54 27.5169 394.276 17.476 396.753 19.9518C397.915 21.1125 394.339 35.2227 390.485 44.6819C388.642 49.2034 389.086 49.4543 394.143 46.7497C397.308 45.0569 402.368 43.6729 405.386 43.6729C408.402 43.6729 414.692 40.461 419.36 36.535C431.471 26.3508 429.858 32.2038 416.813 45.7682C410.744 52.0789 405.778 59.305 405.778 61.8248C405.778 65.0946 406.763 65.6295 409.226 63.6941C413.63 60.2341 435.293 59.4152 431.783 62.8394C430.379 64.2124 422.4 68.0032 414.055 71.2647C405.709 74.5235 396.971 78.9071 394.64 81.0052C390.126 85.0635 378.189 83.5333 378.189 78.8961C378.189 77.3963 376.442 76.8366 374.31 77.6554C372.177 78.4715 368.259 76.7429 365.605 73.815C360.951 68.6759 361.039 68.4857 368.105 68.4857C372.133 68.4857 375.43 67.2451 375.43 65.7287C375.43 61.5877 364.596 62.379 350.084 67.5759C339.357 71.4164 336.413 71.5928 332.805 68.5988C330.413 66.6165 328.782 62.9883 329.182 60.5373C330.52 52.327 309.175 53.3278 287.956 62.4727C277.646 66.9142 263.004 71.3337 255.417 72.2903C242.621 73.9059 197.869 86.26 158.855 98.9448C149.751 101.906 139.198 104.34 135.405 104.354C121.486 104.406 99.1746 117.825 80.3753 137.449C66.7022 151.722 60.0477 156.709 54.6788 156.709C50.6922 156.709 45.8089 158.901 43.828 161.581C41.8444 164.261 36.8066 168.633 32.6352 171.294C27.3463 174.668 25.0481 178.451 25.0481 183.783C25.0481 188.219 19.7897 199.429 12.5227 210.484L0 229.54L5.20055 236.549C12.0895 245.829 25.6799 250.05 51.8206 251.023C72.3966 251.789 73.8836 251.425 86.1415 242.606C103.829 229.882 108.969 231.426 110.028 249.782C110.489 257.73 112.183 264.231 113.8 264.231C115.756 264.231 116.125 258.486 114.909 247L113.085 229.769L144.297 218.289C186.094 202.916 202.7 200.272 259.556 199.933L307.836 199.646L322.343 208.444L336.846 217.244L362.132 210.484C376.037 206.765 396.32 202.916 407.204 201.929C423.995 200.41 427.256 200.818 428.715 204.614C431.105 210.834 436.876 210.286 434.89 204.027C433.61 199.997 435.475 198.307 444.033 195.743C449.945 193.973 456.324 190.67 458.208 188.401C460.09 186.134 463.342 184.279 465.431 184.279C467.522 184.279 469.233 183.082 469.233 181.624C469.233 180.163 476.676 171.015 485.772 161.297C501.079 144.948 503.347 143.528 516.148 142.301C531.739 140.804 541.911 133.705 539.472 126.024C538.606 123.303 539.265 118.53 540.931 115.418C543.296 111.004 543.097 109.427 540.029 108.25C537.866 107.423 535.303 101.771 534.329 95.6944C533.253 88.9646 529.747 82.0418 525.36 77.978C519.368 72.4282 518.744 70.6058 521.652 67.1072C524.309 63.9091 526.044 63.6527 528.916 66.032C534.07 70.3053 540.964 64.4302 540.964 55.765C540.964 52.1727 543.447 47.6843 546.482 45.7902C549.517 43.8962 552 40.7836 552 38.873C552 34.0896 549.873 34.5059 541.764 40.8773C537.932 43.8907 533.502 45.5531 531.915 44.5744C530.166 43.4937 531.38 40.8938 535.005 37.9604C542.885 31.5863 540.079 24.374 529.722 24.374C523.947 24.374 520.722 26.4087 517.712 31.9557C513.833 39.1018 513.59 39.1818 513.486 33.3342C513.425 29.9238 512.371 27.131 511.143 27.131C509.916 27.131 502.585 21.0381 494.852 13.5914C481.968 1.17951 479.717 0.0684554 467.853 0.247659C458.865 0.382751 451.827 2.53043 444.827 7.2752ZM460.956 10.7132C460.956 15.0003 448.017 27.131 443.442 27.131C434.501 27.131 436.393 18.8518 446.565 13.4867C458.432 7.22283 460.956 6.73759 460.956 10.7132Z" fill="#00A3E1" fill-opacity="0.1"/>
<path fill-rule="evenodd" clip-rule="evenodd" d="M82.9754 134.796C126.463 136.855 171.484 138.08 199.5 137.231C230.082 136.304 267.32 131.191 302.807 126.318C343.906 120.674 382.656 115.353 406 117.231C432.289 119.346 471.726 125.662 507.758 131.432C517.334 132.965 526.669 134.46 535.454 135.827C531.319 139.081 524.514 141.497 516.148 142.301C503.347 143.528 501.079 144.947 485.772 161.296C476.676 171.015 469.233 180.162 469.233 181.624C469.233 183.082 467.522 184.279 465.431 184.279C463.342 184.279 460.09 186.134 458.208 188.4C456.324 190.669 449.945 193.972 444.033 195.742C435.475 198.306 433.61 199.996 434.89 204.027C436.876 210.285 431.105 210.834 428.715 204.614C427.256 200.818 423.995 200.41 407.204 201.929C396.32 202.916 376.037 206.765 362.132 210.484L336.846 217.244L322.343 208.444L307.836 199.646L259.556 199.933C202.7 200.272 186.094 202.916 144.297 218.289L113.085 229.769L114.909 247C116.125 258.486 115.756 264.231 113.8 264.231C112.183 264.231 110.489 257.73 110.028 249.782C108.969 231.426 103.829 229.882 86.1415 242.605C73.8836 251.425 72.3966 251.789 51.8206 251.022C25.6799 250.049 12.0895 245.828 5.20055 236.548L0 229.54L12.5227 210.484C19.7897 199.428 25.0481 188.218 25.0481 183.782C25.0481 178.45 27.3463 174.668 32.6352 171.293C36.8066 168.633 41.8444 164.26 43.828 161.58C45.8089 158.901 50.6922 156.709 54.6788 156.709C60.0477 156.709 66.7022 151.721 80.3753 137.448C81.2351 136.551 82.1021 135.667 82.9754 134.796Z" fill="#00A3E1"/>
</svg>
